<?xml version="1.0" encoding="utf-8"?>
<!-- Generator: Adobe Illustrator 16.0.0, SVG Export Plug-In . SVG Version: 6.00 Build 0)  -->
<!DOCTYPE svg PUBLIC "-//W3C//DTD SVG 1.1//EN" "http://www.w3.org/Graphics/SVG/1.1/DTD/svg11.dtd">
<svg version="1.1" id="Layer_1" xmlns="http://www.w3.org/2000/svg" xmlns:xlink="http://www.w3.org/1999/xlink" x="0px" y="0px"
	 width="50px" height="50px" viewBox="0 0 50 50" enable-background="new 0 0 50 50" xml:space="preserve">
<polygon fill="#FFFFFF" points="35.049,7.684 25.139,5.029 15.091,7.857 7.69,15.326 5.027,25.264 7.758,35.104 15.118,42.307 
	25.088,44.979 35.044,42.417 42.313,35.257 44.978,25.315 42.318,15.151 "/>
<path fill="#54316D" d="M49.92,24.698l-2.99-11.427c-0.108-0.413-0.322-0.792-0.62-1.098l-8.198-8.42
	c-0.31-0.318-0.701-0.547-1.13-0.663L25.762,0.084c-0.429-0.115-0.881-0.112-1.308,0.008L13.127,3.281
	c-0.411,0.116-0.785,0.336-1.085,0.639l-8.32,8.397C3.419,12.622,3.202,13,3.091,13.415L0.084,24.637
	c-0.114,0.426-0.112,0.874,0.006,1.299l3.088,11.128c0.117,0.419,0.341,0.8,0.652,1.104l8.296,8.121
	c0.303,0.297,0.678,0.51,1.087,0.62l11.222,3.007C24.646,49.972,24.86,50,25.075,50c0.207,0,0.413-0.026,0.615-0.078l11.229-2.889
	c0.422-0.108,0.808-0.327,1.118-0.632l8.22-8.099c0.313-0.309,0.539-0.695,0.652-1.119l3.007-11.222
	C50.027,25.548,50.028,25.112,49.92,24.698z M25.088,44.979l-9.97-2.672l-7.359-7.204l-2.731-9.839l2.663-9.938l7.401-7.469
	l10.047-2.829l9.91,2.655l7.27,7.467l2.659,10.164l-2.665,9.942l-7.269,7.16L25.088,44.979z"/>
<path fill="#977CB5" d="M26.369,40.84c-1.1,0-2.103-0.74-2.389-1.854c-0.34-1.32,0.456-2.667,1.776-3.006l4.852-1.248l3.55-3.497
	c0.971-0.958,2.534-0.945,3.491,0.026c0.957,0.972,0.945,2.535-0.026,3.491l-4.023,3.963c-0.311,0.306-0.696,0.524-1.117,0.632
	l-5.496,1.414C26.78,40.814,26.572,40.84,26.369,40.84z"/>
</svg>
